<svg width="15" height="20" viewBox="0 0 15 20" fill="none" xmlns="http://www.w3.org/2000/svg">
<path d="M1.7 19.084C1.21667 19.084 0.812667 18.9238 0.488 18.6034C0.162667 18.2837 0 17.8858 0 17.4098V2.46561C0 1.98963 0.162667 1.58751 0.488 1.25924C0.812667 0.930978 1.21667 0.766846 1.7 0.766846H12.925C13.3917 0.766846 13.7917 0.930978 14.125 1.25924C14.4583 1.58751 14.625 1.98963 14.625 2.46561V17.4098C14.625 17.8858 14.4583 18.2837 14.125 18.6034C13.7917 18.9238 13.3917 19.084 12.925 19.084H1.7ZM1.7 17.7053H12.925C13.0083 17.7053 13.079 17.6764 13.137 17.6186C13.1957 17.5615 13.225 17.4919 13.225 17.4098V2.46561C13.225 2.38355 13.1957 2.30969 13.137 2.24403C13.079 2.17838 13.0083 2.14556 12.925 2.14556H11.325V8.42361L9.15 7.14338L6.95 8.42361V2.14556H1.7C1.61667 2.14556 1.546 2.17838 1.488 2.24403C1.42933 2.30969 1.4 2.38355 1.4 2.46561V17.4098C1.4 17.4919 1.42933 17.5615 1.488 17.6186C1.546 17.6764 1.61667 17.7053 1.7 17.7053ZM6.95 2.14556H9.15H11.325H6.95ZM1.7 2.14556C1.61667 2.14556 1.546 2.14556 1.488 2.14556C1.42933 2.14556 1.4 2.14556 1.4 2.14556C1.4 2.14556 1.42933 2.14556 1.488 2.14556C1.546 2.14556 1.61667 2.14556 1.7 2.14556H6.95H9.15H11.325H12.925C13.0083 2.14556 13.079 2.14556 13.137 2.14556C13.1957 2.14556 13.225 2.14556 13.225 2.14556C13.225 2.14556 13.1957 2.14556 13.137 2.14556C13.079 2.14556 13.0083 2.14556 12.925 2.14556H1.7Z" fill="#D20505"/>
</svg>
