<svg width="20" height="19" viewBox="0 0 20 19" fill="none" xmlns="http://www.w3.org/2000/svg">
<path d="M9.84999 18.116L13.95 7.45566H15.825L19.925 18.116H18.075L17.1 15.4078H12.7L11.75 18.116H9.84999ZM13.275 13.8321H16.5L14.925 9.42523H14.85L13.275 13.8321ZM2.725 15.457L1.425 14.1768L6 9.69605C5.43333 9.07235 4.93333 8.42797 4.5 7.76291C4.06666 7.09851 3.7 6.40522 3.4 5.68304H5.275C5.54166 6.20826 5.82933 6.67997 6.138 7.09818C6.446 7.51704 6.81666 7.96446 7.25 8.44044C7.91666 7.73468 8.471 7.0125 8.91299 6.27391C9.35433 5.53532 9.71666 4.73929 9.99999 3.88581H0V2.11319H6.325V0.340576H8.125V2.11319H14.45V3.88581H11.8C11.4833 4.93625 11.0583 5.95812 10.525 6.95145C9.99166 7.94411 9.32499 8.87539 8.52499 9.74528L10.7 11.9118L9.99999 13.7337L7.225 11.0009L2.725 15.457Z" fill="#D20505"/>
</svg>
