<svg width="255" height="40" viewBox="0 0 255 40" fill="none" xmlns="http://www.w3.org/2000/svg">
<path d="M35.144 39H27.416L26.84 25.992C26.68 22.888 26.6 20.12 26.6 17.688C26.6 15.832 26.648 14.072 26.744 12.408L21.608 35.496H14.168L8.69598 12.408C8.88798 15.192 8.98398 17.816 8.98398 20.28C8.98398 22.136 8.93598 24.072 8.83998 26.088L8.26398 39H0.583984L3.07998 5.73602H13.016L18.008 28.296L22.664 5.73602H32.648L35.144 39Z" fill="#363333"/>
<path d="M59.9664 31.608C59.9664 32.568 60.0944 33.272 60.3504 33.72C60.6384 34.168 61.0864 34.504 61.6944 34.728L60.1104 39.672C58.5424 39.544 57.2624 39.208 56.2704 38.664C55.2784 38.088 54.5104 37.192 53.9664 35.976C52.3024 38.536 49.7424 39.816 46.2864 39.816C43.7584 39.816 41.7424 39.08 40.2384 37.608C38.7344 36.136 37.9824 34.216 37.9824 31.848C37.9824 29.064 39.0064 26.936 41.0544 25.464C43.1024 23.992 46.0624 23.256 49.9344 23.256H52.5264V22.152C52.5264 20.648 52.2064 19.624 51.5664 19.08C50.9264 18.504 49.8064 18.216 48.2064 18.216C47.3744 18.216 46.3664 18.344 45.1824 18.6C43.9984 18.824 42.7824 19.144 41.5344 19.56L39.8064 14.568C41.4064 13.96 43.0384 13.496 44.7024 13.176C46.3984 12.856 47.9664 12.696 49.4064 12.696C53.0544 12.696 55.7264 13.448 57.4224 14.952C59.1184 16.456 59.9664 18.712 59.9664 21.72V31.608ZM48.4944 34.392C50.2224 34.392 51.5664 33.576 52.5264 31.944V27.432H50.6544C48.9264 27.432 47.6304 27.736 46.7664 28.344C45.9344 28.952 45.5184 29.896 45.5184 31.176C45.5184 32.2 45.7744 33 46.2864 33.576C46.8304 34.12 47.5664 34.392 48.4944 34.392Z" fill="#363333"/>
<path d="M81.9912 37.8C81.0632 38.44 79.9752 38.936 78.7272 39.288C77.5112 39.64 76.2952 39.816 75.0792 39.816C69.5112 39.784 66.7272 36.712 66.7272 30.6V18.792H63.1272V13.512H66.7272V7.99202L74.3112 7.12802V13.512H80.1672L79.3512 18.792H74.3112V30.504C74.3112 31.688 74.5032 32.536 74.8872 33.048C75.2712 33.56 75.8792 33.816 76.7112 33.816C77.5752 33.816 78.4872 33.544 79.4472 33L81.9912 37.8Z" fill="#363333"/>
<path d="M105.903 25.752C105.903 26.808 105.855 27.72 105.759 28.488H89.9671C90.2231 30.632 90.8311 32.136 91.7911 33C92.7511 33.864 94.0791 34.296 95.7751 34.296C96.7991 34.296 97.7911 34.12 98.7511 33.768C99.7111 33.384 100.751 32.808 101.871 32.04L104.991 36.264C102.015 38.632 98.7031 39.816 95.0551 39.816C90.9271 39.816 87.7591 38.6 85.5511 36.168C83.3431 33.736 82.2391 30.472 82.2391 26.376C82.2391 23.784 82.7031 21.464 83.6311 19.416C84.5591 17.336 85.9191 15.704 87.7111 14.52C89.5031 13.304 91.6471 12.696 94.1431 12.696C97.8231 12.696 100.703 13.848 102.783 16.152C104.863 18.456 105.903 21.656 105.903 25.752ZM98.4631 23.592C98.3991 19.688 97.0231 17.736 94.3351 17.736C93.0231 17.736 91.9991 18.216 91.2631 19.176C90.5591 20.136 90.1271 21.72 89.9671 23.928H98.4631V23.592Z" fill="#363333"/>
<path d="M131.667 39H125.091L124.755 35.784C122.899 38.472 120.323 39.816 117.027 39.816C114.691 39.816 112.915 39.112 111.699 37.704C110.515 36.296 109.923 34.328 109.923 31.8V13.512H117.507V30.84C117.507 32.088 117.699 32.968 118.083 33.48C118.499 33.96 119.123 34.2 119.955 34.2C121.555 34.2 122.931 33.208 124.083 31.224V13.512H131.667V39Z" fill="#363333"/>
<path d="M146.608 12.696C148.432 12.696 150.144 12.968 151.744 13.512C153.344 14.056 154.752 14.824 155.968 15.816L153.184 20.088C151.104 18.776 149.008 18.12 146.896 18.12C145.904 18.12 145.136 18.296 144.592 18.648C144.08 18.968 143.824 19.432 143.824 20.04C143.824 20.52 143.936 20.92 144.16 21.24C144.416 21.528 144.912 21.832 145.648 22.152C146.384 22.472 147.52 22.856 149.056 23.304C151.712 24.072 153.68 25.08 154.96 26.328C156.272 27.544 156.928 29.24 156.928 31.416C156.928 33.144 156.432 34.648 155.44 35.928C154.448 37.176 153.088 38.136 151.36 38.808C149.632 39.48 147.712 39.816 145.6 39.816C143.456 39.816 141.456 39.48 139.6 38.808C137.776 38.136 136.224 37.208 134.944 36.024L138.64 31.896C140.784 33.56 143.04 34.392 145.408 34.392C146.56 34.392 147.456 34.184 148.096 33.768C148.768 33.352 149.104 32.76 149.104 31.992C149.104 31.384 148.976 30.904 148.72 30.552C148.464 30.2 147.968 29.88 147.232 29.592C146.496 29.272 145.328 28.888 143.728 28.44C141.2 27.704 139.312 26.68 138.064 25.368C136.816 24.056 136.192 22.424 136.192 20.472C136.192 19 136.608 17.688 137.44 16.536C138.304 15.352 139.52 14.424 141.088 13.752C142.688 13.048 144.528 12.696 146.608 12.696Z" fill="#363333"/>
<path d="M180.242 5.73602V32.76H193.202L192.386 39H172.37V5.73602H180.242Z" fill="#363333"/>
<path d="M217.841 25.752C217.841 26.808 217.793 27.72 217.697 28.488H201.905C202.161 30.632 202.769 32.136 203.729 33C204.689 33.864 206.017 34.296 207.713 34.296C208.737 34.296 209.729 34.12 210.689 33.768C211.649 33.384 212.689 32.808 213.809 32.04L216.929 36.264C213.953 38.632 210.641 39.816 206.993 39.816C202.865 39.816 199.697 38.6 197.489 36.168C195.281 33.736 194.177 30.472 194.177 26.376C194.177 23.784 194.641 21.464 195.569 19.416C196.497 17.336 197.857 15.704 199.649 14.52C201.441 13.304 203.585 12.696 206.081 12.696C209.761 12.696 212.641 13.848 214.721 16.152C216.801 18.456 217.841 21.656 217.841 25.752ZM210.401 23.592C210.337 19.688 208.961 17.736 206.273 17.736C204.961 17.736 203.937 18.216 203.201 19.176C202.497 20.136 202.065 21.72 201.905 23.928H210.401V23.592Z" fill="#363333"/>
<path d="M243.662 13.512L235.646 39H226.67L218.462 13.512H226.718L231.23 33.24L235.934 13.512H243.662Z" fill="#363333"/>
<path d="M253.919 13.512V39H246.335V13.512H253.919ZM250.079 0.0720215C251.391 0.0720215 252.463 0.488022 253.295 1.32002C254.159 2.12002 254.591 3.14402 254.591 4.39202C254.591 5.64002 254.159 6.68002 253.295 7.51202C252.463 8.31202 251.391 8.71202 250.079 8.71202C248.767 8.71202 247.695 8.31202 246.863 7.51202C246.031 6.68002 245.615 5.64002 245.615 4.39202C245.615 3.14402 246.031 2.12002 246.863 1.32002C247.695 0.488022 248.767 0.0720215 250.079 0.0720215Z" fill="#363333"/>
</svg>
